<svg width="200" height="34" viewBox="0 0 200 34" fill="none" xmlns="http://www.w3.org/2000/svg">
<path d="M106.628 14.2875C106.628 17.809 104.917 21.0328 103.161 23.4062C102.287 24.5874 101.412 25.5442 100.757 26.2052C100.446 26.5184 100.185 26.7645 99.9975 26.936C99.8099 26.7645 99.5489 26.5184 99.2383 26.2052C98.5825 25.5442 97.708 24.5874 96.8342 23.4062C95.0785 21.0328 93.367 17.809 93.367 14.2875C93.367 10.766 95.0785 7.54228 96.8342 5.16881C97.708 3.98759 98.5825 3.03081 99.2383 2.36979C99.5489 2.05666 99.8099 1.81053 99.9975 1.63902C100.185 1.81053 100.446 2.05666 100.757 2.36979C101.412 3.03081 102.287 3.98759 103.161 5.16881C104.917 7.54228 106.628 10.766 106.628 14.2875Z" stroke="white"/>
<path d="M96.5495 12.9527C98.7649 15.481 99.6192 19.1481 99.905 22.2534C100.047 23.7969 100.047 25.1794 100.011 26.1757C99.9928 26.6735 99.9659 27.0737 99.9438 27.3481C99.9437 27.3492 99.9436 27.3504 99.9435 27.3516C99.9424 27.3517 99.9414 27.3518 99.9404 27.3519C99.7 27.3772 99.3493 27.4079 98.9132 27.4284C98.0401 27.4695 96.8287 27.4699 95.4763 27.3077C92.7554 26.9815 89.5422 26.0065 87.3268 23.4782C85.1115 20.95 84.2572 17.2828 83.9713 14.1775C83.8292 12.634 83.8296 11.2516 83.8656 10.2552C83.8836 9.75744 83.9104 9.35723 83.9326 9.08286C83.9327 9.08168 83.9328 9.0805 83.9329 9.07932C83.9339 9.07921 83.935 9.0791 83.936 9.07899C84.1764 9.05367 84.5271 9.02304 84.9632 9.00251C85.8363 8.96141 87.0476 8.961 88.4001 9.12317C91.121 9.44945 94.3342 10.4244 96.5495 12.9527Z" stroke="white"/>
<path d="M103.768 12.9527C101.553 15.481 100.698 19.1481 100.412 22.2534C100.27 23.7969 100.271 25.1794 100.307 26.1757C100.325 26.6735 100.351 27.0737 100.374 27.3481C100.374 27.3492 100.374 27.3504 100.374 27.3516C100.375 27.3517 100.376 27.3518 100.377 27.3519C100.617 27.3772 100.968 27.4079 101.404 27.4284C102.277 27.4695 103.489 27.4699 104.841 27.3077C107.562 26.9815 110.775 26.0065 112.991 23.4782C115.206 20.95 116.06 17.2828 116.346 14.1775C116.488 12.634 116.488 11.2516 116.452 10.2552C116.434 9.75744 116.407 9.35723 116.385 9.08286C116.385 9.08168 116.385 9.0805 116.385 9.07932C116.384 9.07921 116.382 9.0791 116.381 9.07899C116.141 9.05367 115.79 9.02304 115.354 9.00251C114.481 8.96141 113.27 8.961 111.917 9.12317C109.196 9.44945 105.983 10.4244 103.768 12.9527Z" stroke="white"/>
<path d="M67.4552 17.8979H0.873535" stroke="white"/>
<path d="M199.139 17.898L131.078 17.8979" stroke="white"/>
</svg>
